<svg id="Layer_1" data-name="Layer 1" xmlns="http://www.w3.org/2000/svg" viewBox="0 0 394.67 379.83"><defs><style>.cls-1{fill:#f37657;}.cls-1,.cls-2{stroke:#231f20;stroke-miterlimit:10;}.cls-2{fill:#fff;}</style></defs><path class="cls-1" d="M249.6,164c-42.38-8.28-94.47,85-101.22,97.3-22.21,40.56-28.37,75.87-35.71,120.23-11.6,70.05-14.92,158.16-1.19,160.72,20.51,3.83,49.82-189,108.33-190.48,24.95-.64,32.81,34.06,77.38,80.95,82.61,86.94,194.72,114,198.81,106,4.24-8.34-69.68-27.85-130.95-103.57C267.8,314.9,300.18,173.87,249.6,164Z" transform="translate(-102 -162.97)"/><path class="cls-2" d="M224.43,244.56c-32.52-1.45-60.76,81.89-51.53,86.7,5.35,2.8,19.65-22.77,45.81-23.12,25.31-.34,39,23.22,45.81,19.82C276,322.22,255.13,245.94,224.43,244.56Z" transform="translate(-102 -162.97)"/></svg>